<svg width="725" height="716" viewBox="0 0 725 716" fill="none" xmlns="http://www.w3.org/2000/svg">
<path d="M348.627 498.888C303.667 491.149 263.623 465.867 237.304 428.604C210.985 391.34 200.546 345.148 208.285 300.188C216.024 255.228 241.306 215.184 278.569 188.865C315.833 162.546 362.025 152.107 406.985 159.846" stroke="#D9D9D9" stroke-width="2"/>
<line x1="407" y1="236" x2="407" y2="24" stroke="#D9D9D9" stroke-width="2"/>
<line x1="627.5" y1="485.609" x2="627.5" y2="113.982" stroke="#D9D9D9" stroke-width="2"/>
<line x1="379" y1="613" x2="379" y2="43" stroke="#FFDDB7" stroke-width="2"/>
<line x1="319" y1="687" x2="319" y2="4.37113e-08" stroke="#D9D9D9" stroke-width="2"/>
<line x1="347.676" y1="716" x2="347.676" y2="497.967" stroke="#D9D9D9" stroke-width="2"/>
<circle cx="372.51" cy="329.367" r="135.939" fill="#FAFAFA"/>
<circle cx="135.939" cy="568.585" r="135.939" fill="#B59673"/>
<circle cx="378.688" cy="86.6179" r="15.0063" fill="#FAFAFA"/>
<path d="M627.617 113.982C635.577 113.982 643.21 110.82 648.839 105.192C654.467 99.5634 657.629 91.9296 657.629 83.9698C657.629 76.0099 654.467 68.3761 648.839 62.7476C643.21 57.1192 635.577 53.9572 627.617 53.9572L627.617 83.9698L627.617 113.982Z" fill="#FAFAFA"/>
<path d="M627.617 53.9571C619.657 53.9571 612.023 57.1191 606.394 62.7476C600.766 68.376 597.604 76.0098 597.604 83.9697C597.604 91.9295 600.766 99.5634 606.394 105.192C612.023 110.82 619.657 113.982 627.617 113.982L627.617 83.9697L627.617 53.9571Z" fill="#B59673"/>
<line x1="221.563" y1="552.579" x2="724.716" y2="552.579" stroke="white" stroke-width="2"/>
<circle cx="221.564" cy="553.579" r="15.0063" fill="#FAFAFA"/>
<rect x="205.792" y="527.214" width="31.5435" height="50.9634" stroke="#101010" stroke-width="2"/>
</svg>
